<svg width="33" height="33" viewBox="0 0 33 33" fill="none" xmlns="http://www.w3.org/2000/svg">
<path d="M16.3335 16.3333C18.8188 16.3333 20.8335 14.3185 20.8335 11.8333C20.8335 9.34797 18.8188 7.33325 16.3335 7.33325C13.8482 7.33325 11.8335 9.34797 11.8335 11.8333C11.8335 14.3185 13.8482 16.3333 16.3335 16.3333Z" stroke="#3A3A3A" stroke-width="2.5"/>
<path d="M25.2884 28.3333C25.0484 23.9953 23.7209 20.8333 16.3334 20.8333C8.94592 20.8333 7.61842 23.9953 7.37842 28.3333" stroke="#3A3A3A" stroke-width="2.5" stroke-linecap="round"/>
<path d="M8.8335 3.34027C11.1128 2.02162 13.7003 1.32921 16.3335 1.33327C24.618 1.33327 31.3335 8.04877 31.3335 16.3333C31.3335 24.6178 24.618 31.3333 16.3335 31.3333C8.049 31.3333 1.3335 24.6178 1.3335 16.3333C1.3335 13.6018 2.064 11.0383 3.3405 8.83327" stroke="#3A3A3A" stroke-width="2.5" stroke-linecap="round"/>
</svg>
