<svg width="31" height="31" viewBox="0 0 31 31" fill="none" xmlns="http://www.w3.org/2000/svg">
<path d="M22.8979 20.0356H24.8061V24.806H22.8979V20.0356Z" fill="#3A3A3A"/>
<path d="M19.0815 15.2651H20.9897V24.8059H19.0815V15.2651Z" fill="#3A3A3A"/>
<path d="M10.495 24.8059C9.23027 24.8044 8.01777 24.3013 7.12347 23.407C6.22917 22.5127 5.7261 21.3002 5.72461 20.0355H7.63276C7.63276 20.6016 7.80063 21.155 8.11514 21.6257C8.42964 22.0964 8.87666 22.4632 9.39966 22.6799C9.92267 22.8965 10.4982 22.9532 11.0534 22.8428C11.6086 22.7323 12.1186 22.4597 12.5189 22.0594C12.9192 21.6591 13.1918 21.1491 13.3022 20.5939C13.4127 20.0387 13.356 19.4632 13.1393 18.9402C12.9227 18.4172 12.5559 17.9702 12.0852 17.6557C11.6145 17.3412 11.0611 17.1733 10.495 17.1733V15.2651C11.7602 15.2651 12.9735 15.7677 13.8682 16.6623C14.7628 17.557 15.2654 18.7703 15.2654 20.0355C15.2654 21.3007 14.7628 22.5141 13.8682 23.4087C12.9735 24.3033 11.7602 24.8059 10.495 24.8059Z" fill="#3A3A3A"/>
<path d="M26.7142 1.9082H3.81636C3.31044 1.90871 2.82538 2.10991 2.46765 2.46765C2.10991 2.82538 1.90871 3.31044 1.9082 3.81636V26.7142C1.90878 27.2201 2.11001 27.7051 2.46773 28.0628C2.82545 28.4205 3.31046 28.6218 3.81636 28.6223H26.7142C27.2201 28.6217 27.705 28.4204 28.0627 28.0627C28.4204 27.705 28.6217 27.2201 28.6223 26.7142V3.81636C28.6218 3.31046 28.4205 2.82545 28.0628 2.46773C27.7051 2.11001 27.2201 1.90878 26.7142 1.9082ZM26.7142 10.4949H13.3571V3.81636H26.7142V10.4949ZM11.449 3.81636V10.4949H3.81636V3.81636H11.449ZM3.81636 26.7142V12.403H26.7149L26.7161 26.7142H3.81636Z" fill="#3A3A3A"/>
</svg>
