<svg width="31" height="32" viewBox="0 0 31 32" fill="none" xmlns="http://www.w3.org/2000/svg">
<rect width="31" height="32" fill="#3A3A3A"/>
<mask id="mask0_0_1" style="mask-type:alpha" maskUnits="userSpaceOnUse" x="-21" y="-190" width="2500" height="1250">
<rect x="-21" y="-190" width="2500" height="1250" fill="#F4F4FC"/>
</mask>
<g mask="url(#mask0_0_1)">
<rect x="-21" y="-190" width="2500" height="1250" fill="#F4FCFC"/>
<g filter="url(#filter0_d_0_1)">
<rect x="-21" y="-190" width="350" height="1250" fill="#FFFDFF"/>
</g>
<path d="M13.7174 6.95413L14.3921 7.60502M17.091 10.2086L17.7657 10.8595M20.4646 13.4631L21.1393 14.114M23.8381 16.7176L24.5129 17.3685M11.9791 20.9088L16.5354 16.1858M14.0033 22.8615L16.6068 20.1626M1.65202 18.1108C1.11308 18.6694 1.12909 19.5602 1.68775 20.0992L4.41001 22.7253C5.04298 22.5427 5.71291 22.53 6.35232 22.6887C6.99173 22.8473 7.57803 23.1717 8.05217 23.6291C8.52631 24.0865 8.87154 24.6608 9.05307 25.2941C9.23461 25.9274 9.24605 26.5973 9.08624 27.2365L11.8085 29.8626C12.3672 30.4015 13.258 30.3855 13.7969 29.8269L28.7675 14.3084C29.3064 13.7497 29.2904 12.8589 28.7318 12.32L26.0095 9.69385C25.3765 9.87652 24.7066 9.88916 24.0672 9.73049C23.4278 9.57182 22.8415 9.24745 22.3674 8.79005C21.8932 8.33265 21.548 7.75838 21.3664 7.12509C21.1849 6.49179 21.1735 5.82183 21.3333 5.18271L18.611 2.55656C18.0524 2.01762 17.1616 2.03363 16.6226 2.59229L1.65202 18.1108Z" stroke="#3A3A3A" stroke-width="2.5" stroke-linecap="round" stroke-linejoin="round"/>
</g>
<defs>
<filter id="filter0_d_0_1" x="-23" y="-192" width="354" height="1254" filterUnits="userSpaceOnUse" color-interpolation-filters="sRGB">
<feFlood flood-opacity="0" result="BackgroundImageFix"/>
<feColorMatrix in="SourceAlpha" type="matrix" values="0 0 0 0 0 0 0 0 0 0 0 0 0 0 0 0 0 0 127 0" result="hardAlpha"/>
<feOffset/>
<feGaussianBlur stdDeviation="1"/>
<feComposite in2="hardAlpha" operator="out"/>
<feColorMatrix type="matrix" values="0 0 0 0 0 0 0 0 0 0 0 0 0 0 0 0 0 0 0.25 0"/>
<feBlend mode="normal" in2="BackgroundImageFix" result="effect1_dropShadow_0_1"/>
<feBlend mode="normal" in="SourceGraphic" in2="effect1_dropShadow_0_1" result="shape"/>
</filter>
</defs>
</svg>
